<svg width="117" height="117" viewBox="0 0 117 117" fill="none" xmlns="http://www.w3.org/2000/svg">
<path d="M57.2522 29.5174L41.7588 14.024C32.887 17.4003 25.2181 23.3361 19.7253 31.0781H56.6078C56.7885 31.0778 56.965 31.024 57.1151 30.9234C57.2652 30.8228 57.3821 30.6799 57.4511 30.5129C57.52 30.3459 57.538 30.1622 57.5025 29.985C57.4671 29.8078 57.38 29.6451 57.2522 29.5174Z" fill="#358DC8"/>
<path d="M38.3267 38.3906H15.4546C11.247 47.359 9.95637 57.4207 11.7641 67.1607L38.9712 39.9514C39.099 39.8237 39.1861 39.661 39.2215 39.4838C39.2569 39.3066 39.239 39.1229 39.1701 38.9558C39.1011 38.7888 38.9842 38.646 38.8341 38.5454C38.684 38.4448 38.5074 38.3909 38.3267 38.3906Z" fill="#358DC8"/>
<path d="M78.6094 38.3266V15.4385C69.6378 11.244 59.5794 9.95922 49.8416 11.764L77.0486 38.971C77.1763 39.0989 77.339 39.186 77.5162 39.2214C77.6934 39.2568 77.8771 39.2389 78.0441 39.1699C78.2112 39.101 78.354 38.9841 78.4546 38.834C78.5552 38.6839 78.6091 38.5073 78.6094 38.3266Z" fill="#358DC8"/>
<path d="M105.236 49.8393L78.0288 77.0486C77.901 77.1763 77.8139 77.339 77.7785 77.5162C77.7431 77.6934 77.761 77.8771 77.8299 78.0442C77.8989 78.2112 78.0158 78.354 78.1659 78.4546C78.316 78.5552 78.4925 78.6091 78.6732 78.6094H101.545C105.753 69.641 107.044 59.5793 105.236 49.8393Z" fill="#358DC8"/>
<path d="M87.4826 57.2523L102.983 41.7544C99.6156 32.8694 93.6755 25.1901 85.9219 19.6981V56.6079C85.9222 56.7886 85.976 56.9651 86.0766 57.1152C86.1772 57.2653 86.3201 57.3823 86.4871 57.4512C86.6541 57.5202 86.8378 57.5381 87.015 57.5027C87.1922 57.4673 87.3549 57.3802 87.4826 57.2523Z" fill="#358DC8"/>
<path d="M50.6574 78.0998C50.9978 78.4267 51.4514 78.6093 51.9234 78.6094H65.5566C65.7991 78.6093 66.0391 78.5609 66.2628 78.4672C66.4864 78.3734 66.6891 78.2361 66.8591 78.0632L78.0975 66.6374C78.4347 66.2951 78.6235 65.8337 78.6231 65.3532L78.6094 51.4572C78.6093 51.2152 78.5612 50.9757 78.4678 50.7525C78.3745 50.5293 78.2377 50.3269 78.0656 50.1569L66.6398 38.9025C66.2968 38.5648 65.8345 38.3759 65.3532 38.3769L51.4503 38.3906C51.2084 38.3907 50.9689 38.4389 50.7457 38.5322C50.5225 38.6256 50.3201 38.7623 50.1501 38.9345L38.8957 50.3603C38.558 50.7032 38.3691 51.1655 38.3701 51.6468L38.3838 65.536C38.3839 65.7818 38.4335 66.025 38.5297 66.2512C38.6259 66.4773 38.7667 66.6818 38.9437 66.8523L50.6574 78.0998Z" fill="#358DC8"/>
<path d="M59.7476 87.4826L75.2409 102.976C84.1128 99.5997 91.7817 93.6639 97.2744 85.9219H60.392C60.2113 85.9222 60.0347 85.976 59.8846 86.0766C59.7345 86.1772 59.6176 86.3201 59.5487 86.4871C59.4797 86.6541 59.4618 86.8378 59.4972 87.015C59.5326 87.1922 59.6197 87.3549 59.7476 87.4826Z" fill="#358DC8"/>
<path d="M38.3906 78.6734V101.561C47.3622 105.756 57.4206 107.041 67.1585 105.236L39.9514 78.0289C39.8237 77.9011 39.661 77.814 39.4838 77.7786C39.3066 77.7432 39.1229 77.7611 38.9558 77.83C38.7888 77.899 38.646 78.0159 38.5454 78.166C38.4448 78.3161 38.3909 78.4927 38.3906 78.6734Z" fill="#358DC8"/>
<path d="M29.5173 59.7477L14.0171 75.2479C17.385 84.132 23.325 91.8103 31.0781 97.302V60.3921C31.0778 60.2114 31.0239 60.0349 30.9233 59.8848C30.8227 59.7347 30.6799 59.6178 30.5128 59.5488C30.3458 59.4798 30.1621 59.4619 29.9849 59.4973C29.8077 59.5327 29.645 59.6199 29.5173 59.7477Z" fill="#358DC8"/>
</svg>
