<svg width="117" height="117" viewBox="0 0 117 117" fill="none" xmlns="http://www.w3.org/2000/svg">
<path d="M13.8115 88.9314C13.8115 88.9474 13.8115 88.9771 13.7932 89.0183C13.8001 88.9908 13.8046 88.9611 13.8115 88.9314Z" fill="#358DC8"/>
<path d="M100.524 92.6859C99.7717 92.6697 99.0288 92.5148 98.3326 92.2289L85.3575 87.6289L85.2615 87.59C84.9786 87.4721 84.6746 87.413 84.368 87.4164C84.0855 87.4167 83.8053 87.4678 83.5408 87.5672C83.2254 87.686 80.385 88.7532 77.4051 89.5713C75.7895 90.0146 70.1658 91.4611 65.6526 91.4611C54.1171 91.4611 43.3312 87.0279 35.2851 78.9773C31.3545 75.0707 28.2377 70.4233 26.1152 65.3041C23.9928 60.1849 22.9068 54.6955 22.9202 49.1537C22.9201 46.2662 23.2311 43.387 23.8479 40.5661C25.8566 31.2838 31.1764 22.8401 38.8271 16.8005C46.6752 10.6443 56.3637 7.30298 66.3381 7.31251C78.2689 7.31251 89.3862 11.8828 97.6448 20.1505C105.451 27.9817 109.729 38.2787 109.694 49.1423C109.688 57.2148 107.277 65.1024 102.77 71.7996L102.727 71.8636L102.558 72.0921C102.519 72.1447 102.48 72.1949 102.444 72.2475L102.409 72.3092C102.318 72.4638 102.236 72.6232 102.163 72.7868L105.759 85.57C105.918 86.0973 106.005 86.644 106.015 87.1947C106.016 87.9161 105.875 88.6305 105.599 89.2972C105.324 89.9638 104.919 90.5695 104.409 91.0796C103.899 91.5897 103.293 91.9941 102.627 92.2698C101.96 92.5454 101.245 92.6868 100.524 92.6859Z" fill="#358DC8"/>
<path d="M68.525 97.2083C68.2889 96.749 67.9566 96.346 67.5509 96.0266C67.1451 95.7072 66.6754 95.479 66.1735 95.3573C64.8527 95.0077 63.3125 95.0671 62.1357 94.9802C51.0237 94.2076 40.5671 89.4387 32.6983 81.555C25.7028 74.5987 21.1565 65.5581 19.7437 55.7944C19.4238 53.5686 19.4238 53.0156 19.4238 53.0156C19.4237 52.273 19.1974 51.5481 18.7751 50.9372C18.3529 50.3264 17.7546 49.8586 17.0599 49.5961C16.3653 49.3336 15.6071 49.2889 14.8864 49.4678C14.1657 49.6468 13.5166 50.041 13.0254 50.5979C13.0254 50.5979 11.2247 52.5586 10.3746 54.5261C7.99045 60.0193 6.97371 66.0087 7.4115 71.981C7.84929 77.9533 9.72856 83.7303 12.8883 88.8172C13.4824 89.8067 13.4824 90.2637 13.3499 91.292C12.726 94.5164 11.6337 100.204 11.0647 103.154C10.8763 104.111 10.9464 105.101 11.2677 106.021C11.5891 106.942 12.15 107.76 12.8928 108.392L12.998 108.481C13.9806 109.261 15.1983 109.687 16.4531 109.688C17.1589 109.688 17.8579 109.549 18.5098 109.278L30.7376 104.56C31.1586 104.4 31.6237 104.4 32.0447 104.56C36.8596 106.351 41.8709 107.302 46.6195 107.302C52.5361 107.307 58.381 106.007 63.7376 103.495C64.9853 102.91 66.9368 102.274 68.0794 100.954C68.5118 100.441 68.7844 99.8135 68.8636 99.1478C68.9428 98.4821 68.8251 97.8077 68.525 97.2083Z" fill="#358DC8"/>
</svg>
