<svg width="117" height="117" viewBox="0 0 117 117" fill="none" xmlns="http://www.w3.org/2000/svg">
<path d="M58.5 10.9688C32.2915 10.9688 10.9688 32.2915 10.9688 58.5C10.9688 84.7085 32.2915 106.031 58.5 106.031C84.7085 106.031 106.031 84.7085 106.031 58.5C106.031 32.2915 84.7085 10.9688 58.5 10.9688ZM58.5 84.0732C57.5961 84.0732 56.7125 83.8051 55.9609 83.3029C55.2093 82.8008 54.6235 82.087 54.2776 81.2519C53.9317 80.4167 53.8412 79.4978 54.0175 78.6112C54.1939 77.7247 54.6291 76.9103 55.2683 76.2712C55.9075 75.632 56.7218 75.1967 57.6084 75.0204C58.4949 74.844 59.4139 74.9345 60.249 75.2804C61.0841 75.6264 61.7979 76.2122 62.3001 76.9637C62.8023 77.7153 63.0703 78.599 63.0703 79.5029C63.0703 80.715 62.5888 81.8775 61.7317 82.7346C60.8746 83.5917 59.7121 84.0732 58.5 84.0732ZM63.4634 38.1073L62.1517 65.9862C62.1517 66.9559 61.7665 67.8858 61.0808 68.5715C60.3951 69.2572 59.4651 69.6424 58.4954 69.6424C57.5257 69.6424 56.5957 69.2572 55.9101 68.5715C55.2244 67.8858 54.8392 66.9559 54.8392 65.9862L53.5275 38.121V38.1096C53.4988 37.4398 53.6058 36.7712 53.8423 36.144C54.0788 35.5167 54.4397 34.9438 54.9035 34.4598C55.3672 33.9757 55.9241 33.5905 56.5406 33.3274C57.1571 33.0642 57.8205 32.9286 58.4909 32.9286C59.1612 32.9286 59.8246 33.0642 60.4411 33.3274C61.0576 33.5905 61.6145 33.9757 62.0782 34.4598C62.542 34.9438 62.9029 35.5167 63.1394 36.144C63.3759 36.7712 63.483 37.4398 63.4542 38.1096L63.4634 38.1073Z" fill="#358DC8"/>
</svg>
