<svg width="117" height="117" viewBox="0 0 117 117" fill="none" xmlns="http://www.w3.org/2000/svg">
<path d="M61.4708 76.6921C60.5064 76.7637 59.533 76.7995 58.5503 76.7995C57.3552 76.7995 56.1738 76.7447 55.0061 76.6419C49.2293 76.1298 43.6315 74.3752 38.596 71.4983C33.5605 68.6215 29.2063 64.6903 25.8315 59.9739C25.7426 59.8471 25.6229 59.745 25.4838 59.6771C25.3446 59.6092 25.1905 59.5778 25.0358 59.5858C24.8812 59.5938 24.7311 59.6409 24.5997 59.7228C24.4682 59.8047 24.3598 59.9186 24.2844 60.0539L7.8313 89.6238C7.20517 90.7664 7.1069 92.1375 7.76731 93.2527C8.1111 93.8056 8.59001 94.2619 9.15892 94.5785C9.72783 94.8952 10.368 95.0617 11.0191 95.0625H28.8433C29.4642 95.0395 30.08 95.1827 30.6271 95.4771C31.1742 95.7716 31.6329 96.2067 31.9557 96.7375L40.7901 111.516C41.1134 112.064 41.5721 112.52 42.1223 112.84C42.6725 113.16 43.2957 113.334 43.9322 113.344C45.2896 113.268 46.695 112.386 47.2594 111.15L62.3666 77.981C62.4318 77.8369 62.4585 77.6783 62.4441 77.5208C62.4297 77.3633 62.3747 77.2122 62.2844 77.0823C62.1941 76.9525 62.0717 76.8482 61.9291 76.7798C61.7865 76.7114 61.6286 76.6812 61.4708 76.6921Z" fill="#358DC8"/>
<path d="M109.148 89.5507L92.8024 60.0333C92.7269 59.8994 92.6188 59.7866 92.4882 59.7055C92.3575 59.6244 92.2085 59.5776 92.0549 59.5694C91.9014 59.5612 91.7482 59.5919 91.6097 59.6586C91.4711 59.7253 91.3516 59.8259 91.2623 59.9511C86.7671 66.2492 80.5551 71.1214 73.3672 73.9865C72.4847 74.3343 71.7707 75.0098 71.3745 75.8717L62.9515 94.4043C62.843 94.641 62.7869 94.8982 62.7869 95.1585C62.7869 95.4187 62.843 95.6759 62.9515 95.9125L69.8686 111.129C70.4285 112.366 71.8316 113.268 73.1867 113.344C73.8236 113.328 74.4459 113.149 74.994 112.824C75.5422 112.499 75.9978 112.039 76.3173 111.488L85.122 96.7306C85.7824 95.6223 86.9799 95.0556 88.271 95.0625H106.271C107.795 95.0625 108.949 94.2672 109.47 92.7773C109.653 92.2482 109.72 91.6857 109.664 91.1286C109.608 90.5715 109.432 90.0331 109.148 89.5507Z" fill="#358DC8"/>
<path d="M58.5594 47.5312C64.6186 47.5312 69.5304 42.6204 69.5304 36.5625C69.5304 30.5046 64.6186 25.5938 58.5594 25.5938C52.5003 25.5938 47.5884 30.5046 47.5884 36.5625C47.5884 42.6204 52.5003 47.5312 58.5594 47.5312Z" fill="#358DC8"/>
<path d="M58.5594 3.65625C40.4107 3.65625 25.6532 18.4161 25.6532 36.5625C25.6532 54.7089 40.4176 69.4688 58.5594 69.4688C76.7013 69.4688 91.4657 54.7066 91.4657 36.5625C91.4657 18.4184 76.7059 3.65625 58.5594 3.65625ZM58.5594 54.8438C54.9438 54.8438 51.4093 53.7716 48.4029 51.7628C45.3966 49.754 43.0534 46.8989 41.6698 43.5584C40.2861 40.218 39.9241 36.5422 40.6295 32.996C41.3349 29.4498 43.076 26.1924 45.6327 23.6357C48.1893 21.079 51.4467 19.3379 54.993 18.6325C58.5392 17.9271 62.2149 18.2892 65.5554 19.6728C68.8958 21.0565 71.751 23.3996 73.7597 26.406C75.7685 29.4123 76.8407 32.9468 76.8407 36.5625C76.8347 41.4091 74.9067 46.0555 71.4796 49.4826C68.0525 52.9097 63.4061 54.8377 58.5594 54.8438Z" fill="#358DC8"/>
</svg>
