<svg width="117" height="117" viewBox="0 0 117 117" fill="none" xmlns="http://www.w3.org/2000/svg">
<path d="M23.7656 113.344H16.4531C14.9986 113.344 13.6036 112.766 12.5751 111.737C11.5466 110.709 10.9688 109.314 10.9688 107.859V74.9531C10.9688 73.4986 11.5466 72.1036 12.5751 71.0751C13.6036 70.0466 14.9986 69.4688 16.4531 69.4688H23.7656C25.2202 69.4688 26.6151 70.0466 27.6437 71.0751C28.6722 72.1036 29.25 73.4986 29.25 74.9531V107.859C29.25 109.314 28.6722 110.709 27.6437 111.737C26.6151 112.766 25.2202 113.344 23.7656 113.344Z" fill="#358DC8"/>
<path d="M74.9531 113.344H67.6406C66.1861 113.344 64.7911 112.766 63.7626 111.737C62.7341 110.709 62.1562 109.314 62.1562 107.859V53.0156C62.1562 51.5611 62.7341 50.1661 63.7626 49.1376C64.7911 48.1091 66.1861 47.5313 67.6406 47.5312H74.9531C76.4077 47.5313 77.8026 48.1091 78.8312 49.1376C79.8597 50.1661 80.4375 51.5611 80.4375 53.0156V107.859C80.4375 109.314 79.8597 110.709 78.8312 111.737C77.8026 112.766 76.4077 113.344 74.9531 113.344Z" fill="#358DC8"/>
<path d="M100.547 113.344H93.2344C91.7798 113.344 90.3849 112.766 89.3563 111.737C88.3278 110.709 87.75 109.314 87.75 107.859V27.4219C87.75 25.9673 88.3278 24.5724 89.3563 23.5438C90.3849 22.5153 91.7798 21.9375 93.2344 21.9375H100.547C102.001 21.9375 103.396 22.5153 104.425 23.5438C105.453 24.5724 106.031 25.9673 106.031 27.4219V107.859C106.031 109.314 105.453 110.709 104.425 111.737C103.396 112.766 102.001 113.344 100.547 113.344Z" fill="#358DC8"/>
<path d="M49.3594 113.344H42.0469C40.5923 113.344 39.1974 112.766 38.1688 111.737C37.1403 110.709 36.5625 109.314 36.5625 107.859V9.14062C36.5625 7.68608 37.1403 6.29111 38.1688 5.26259C39.1974 4.23407 40.5923 3.65625 42.0469 3.65625H49.3594C50.8139 3.65625 52.2089 4.23407 53.2374 5.26259C54.2659 6.29111 54.8438 7.68608 54.8438 9.14062V107.859C54.8438 109.314 54.2659 110.709 53.2374 111.737C52.2089 112.766 50.8139 113.344 49.3594 113.344Z" fill="#358DC8"/>
</svg>
