<svg width="58" height="58" viewBox="0 0 58 58" fill="none" xmlns="http://www.w3.org/2000/svg">
<path d="M57.4375 29C57.4375 13.2951 44.7049 0.5625 29 0.5625C13.2951 0.5625 0.5625 13.2951 0.5625 29C0.5625 44.7049 13.2951 57.4375 29 57.4375C44.7049 57.4375 57.4375 44.7049 57.4375 29ZM28.3643 41.4906C28.1603 41.2883 27.9981 41.0478 27.8871 40.7828C27.7761 40.5178 27.7184 40.2335 27.7172 39.9462C27.7161 39.6589 27.7715 39.3742 27.8805 39.1083C27.9894 38.8424 28.1496 38.6006 28.352 38.3967L35.5051 31.1875H17.2422C16.662 31.1875 16.1056 30.957 15.6954 30.5468C15.2852 30.1366 15.0547 29.5802 15.0547 29C15.0547 28.4198 15.2852 27.8634 15.6954 27.4532C16.1056 27.043 16.662 26.8125 17.2422 26.8125H35.5051L28.352 19.6033C28.1496 19.3992 27.9895 19.1572 27.8806 18.8912C27.7718 18.6251 27.7165 18.3403 27.7177 18.0528C27.719 17.7654 27.7769 17.481 27.888 17.216C27.9992 16.9509 28.1615 16.7104 28.3656 16.508C28.5698 16.3057 28.8118 16.1455 29.0778 16.0367C29.3438 15.9279 29.6287 15.8725 29.9161 15.8738C30.4966 15.8763 31.0523 16.1094 31.4609 16.5217L42.315 27.4592C42.7216 27.8689 42.9498 28.4228 42.9498 29C42.9498 29.5772 42.7216 30.1311 42.315 30.5408L31.4609 41.4783C31.2586 41.6827 31.0179 41.8452 30.7526 41.9565C30.4874 42.0677 30.2028 42.1256 29.9151 42.1267C29.6275 42.1279 29.3425 42.0723 29.0764 41.9631C28.8102 41.854 28.5683 41.6934 28.3643 41.4906Z" fill="white"/>
</svg>
