<svg width="40" height="40" viewBox="0 0 40 40" fill="none" xmlns="http://www.w3.org/2000/svg">
<g clip-path="url(#clip0)">
<path d="M44.5 34.75H10.75C10.087 34.75 9.45107 34.4866 8.98223 34.0178C8.51339 33.5489 8.25 32.913 8.25 32.25V-1.5C8.25 -1.83152 8.3817 -2.14946 8.61612 -2.38388C8.85054 -2.6183 9.16848 -2.75 9.5 -2.75C9.83152 -2.75 10.1495 -2.6183 10.3839 -2.38388C10.6183 -2.14946 10.75 -1.83152 10.75 -1.5V32.25H44.5C44.8315 32.25 45.1495 32.3817 45.3839 32.6161C45.6183 32.8505 45.75 33.1685 45.75 33.5C45.75 33.8315 45.6183 34.1495 45.3839 34.3839C45.1495 34.6183 44.8315 34.75 44.5 34.75Z" fill="#BBE1FA"/>
<path d="M19.1875 29.75H16.0625C15.3166 29.75 14.6012 29.4537 14.0738 28.9262C13.5463 28.3988 13.25 27.6834 13.25 26.9375V15.0625C13.25 14.3166 13.5463 13.6012 14.0738 13.0738C14.6012 12.5463 15.3166 12.25 16.0625 12.25H19.1875C19.9334 12.25 20.6488 12.5463 21.1762 13.0738C21.7037 13.6012 22 14.3166 22 15.0625V26.9375C22 27.6834 21.7037 28.3988 21.1762 28.9262C20.6488 29.4537 19.9334 29.75 19.1875 29.75Z" fill="#BBE1FA"/>
<path d="M30.4375 29.75H27.3125C26.5666 29.75 25.8512 29.4537 25.3238 28.9262C24.7963 28.3988 24.5 27.6834 24.5 26.9375V11.3125C24.5 10.5666 24.7963 9.85121 25.3238 9.32376C25.8512 8.79632 26.5666 8.5 27.3125 8.5H30.4375C31.1834 8.5 31.8988 8.79632 32.4262 9.32376C32.9537 9.85121 33.25 10.5666 33.25 11.3125V26.9375C33.25 27.6834 32.9537 28.3988 32.4262 28.9262C31.8988 29.4537 31.1834 29.75 30.4375 29.75Z" fill="#BBE1FA"/>
<path d="M41.6592 29.75H38.5342C37.7883 29.75 37.0729 29.4537 36.5454 28.9262C36.018 28.3988 35.7217 27.6834 35.7217 26.9375V6.3125C35.7217 5.56658 36.018 4.85121 36.5454 4.32376C37.0729 3.79632 37.7883 3.5 38.5342 3.5H41.6592C42.4051 3.5 43.1205 3.79632 43.6479 4.32376C44.1754 4.85121 44.4717 5.56658 44.4717 6.3125V26.9375C44.4717 27.6834 44.1754 28.3988 43.6479 28.9262C43.1205 29.4537 42.4051 29.75 41.6592 29.75Z" fill="#BBE1FA"/>
</g>
<defs>
<clipPath id="clip0">
<rect width="40" height="40" fill="white"/>
</clipPath>
</defs>
</svg>
