<svg width="34" height="34" viewBox="0 0 34 34" fill="none" xmlns="http://www.w3.org/2000/svg">
<path d="M17 0.75C8.03984 0.75 0.75 8.03984 0.75 17C0.75 25.9602 8.03984 33.25 17 33.25C25.9602 33.25 33.25 25.9602 33.25 17C33.25 8.03984 25.9602 0.75 17 0.75ZM22.8836 21.1164C23.0046 21.2313 23.1013 21.3693 23.1681 21.5222C23.2349 21.6751 23.2704 21.8398 23.2725 22.0066C23.2747 22.1735 23.2434 22.339 23.1805 22.4936C23.1177 22.6481 23.0245 22.7885 22.9065 22.9065C22.7885 23.0245 22.6481 23.1177 22.4936 23.1805C22.339 23.2434 22.1735 23.2747 22.0066 23.2725C21.8398 23.2704 21.6751 23.2349 21.5222 23.1681C21.3693 23.1013 21.2313 23.0046 21.1164 22.8836L17 18.768L12.8836 22.8836C12.6473 23.1081 12.3326 23.2314 12.0066 23.2273C11.6807 23.2231 11.3692 23.0918 11.1387 22.8613C10.9082 22.6308 10.7769 22.3193 10.7727 21.9934C10.7686 21.6674 10.8919 21.3527 11.1164 21.1164L15.232 17L11.1164 12.8836C10.8919 12.6473 10.7686 12.3326 10.7727 12.0066C10.7769 11.6807 10.9082 11.3692 11.1387 11.1387C11.3692 10.9082 11.6807 10.7769 12.0066 10.7727C12.3326 10.7686 12.6473 10.8919 12.8836 11.1164L17 15.232L21.1164 11.1164C21.3527 10.8919 21.6674 10.7686 21.9934 10.7727C22.3193 10.7769 22.6308 10.9082 22.8613 11.1387C23.0918 11.3692 23.2231 11.6807 23.2273 12.0066C23.2314 12.3326 23.1081 12.6473 22.8836 12.8836L18.768 17L22.8836 21.1164Z" fill="#FD3333"/>
</svg>
