<svg width="30" height="30" viewBox="0 0 30 30" fill="none" xmlns="http://www.w3.org/2000/svg">
<path d="M15 0C6.71875 0 0 6.71875 0 15C0 23.2812 6.71875 30 15 30C23.2812 30 30 23.2812 30 15C30 6.71875 23.2812 0 15 0ZM15.8156 23.5938H13.4555C13.4024 23.5935 13.3515 23.5723 13.314 23.5347C13.2765 23.497 13.2555 23.4461 13.2555 23.393V21.0336C13.2555 20.9805 13.2765 20.9295 13.314 20.8919C13.3515 20.8543 13.4024 20.833 13.4555 20.8328H15.8156C15.8687 20.833 15.9196 20.8543 15.9571 20.8919C15.9946 20.9295 16.0156 20.9805 16.0156 21.0336V23.393C16.0156 23.4461 15.9946 23.497 15.9571 23.5347C15.9196 23.5723 15.8687 23.5935 15.8156 23.5938ZM17.1437 15.8594C15.8773 16.7094 15.7031 17.4883 15.7031 18.2031V19.0625C15.7031 19.1247 15.6784 19.1843 15.6345 19.2282C15.5905 19.2722 15.5309 19.2969 15.4688 19.2969H13.75C13.6878 19.2969 13.6282 19.2722 13.5843 19.2282C13.5403 19.1843 13.5156 19.1247 13.5156 19.0625V18.2031C13.5156 16.4914 14.3031 15.1305 15.9234 14.0422C17.4297 13.0312 18.2812 12.3906 18.2812 10.982C18.2812 10.0242 17.7344 9.29688 16.6023 8.75859C16.3359 8.63203 15.743 8.50859 15.0133 8.51719C14.0977 8.52891 13.3867 8.74766 12.8391 9.18828C11.8062 10.0195 11.7188 10.925 11.7188 10.9375C11.6759 11.2031 11.6539 11.4716 11.6531 11.7406C11.6531 11.8028 11.6284 11.8624 11.5845 11.9064C11.5405 11.9503 11.4809 11.975 11.4188 11.975H9.75859C9.70041 11.9753 9.64419 11.954 9.60087 11.9151C9.55755 11.8763 9.53023 11.8227 9.52422 11.7648C9.49609 11.4529 9.49844 11.1389 9.53125 10.8273C9.54844 10.6375 9.67188 8.92734 11.4664 7.48359C12.3969 6.73516 13.5805 6.34609 14.982 6.32891C15.9742 6.31719 16.9062 6.48516 17.5383 6.78359C19.4297 7.68281 20.4688 9.17422 20.4688 10.982C20.4688 13.625 18.7023 14.8117 17.1437 15.8594Z" fill="#70C2F6"/>
</svg>
