<svg width="40" height="40" viewBox="0 0 40 40" fill="none" xmlns="http://www.w3.org/2000/svg">
<path d="M38.7499 10.0039C38.7512 9.04065 38.4744 8.09748 37.9525 7.28782C37.4306 6.47817 36.6859 5.8365 35.8081 5.43997C34.9302 5.04345 33.9564 4.90895 33.0039 5.05266C32.0514 5.19636 31.1607 5.61215 30.4389 6.25002C30.0481 6.59474 29.7132 6.99796 29.4459 7.44533V7.45002C29.4038 7.52033 29.3639 7.59221 29.3249 7.66408L29.3061 7.70236C29.2733 7.76408 29.2428 7.82658 29.2131 7.88986C29.2038 7.90939 29.1952 7.92893 29.1866 7.94846C29.1608 8.00549 29.1358 8.0633 29.1124 8.12189C29.1022 8.14611 29.0928 8.17033 29.0834 8.19455C29.0624 8.24924 29.042 8.30393 29.0225 8.35939L28.9944 8.44221C28.9772 8.49533 28.9608 8.54924 28.9452 8.60314C28.9358 8.63361 28.9272 8.6633 28.9194 8.69377C28.9045 8.74611 28.892 8.79924 28.8795 8.85002C28.8717 8.88205 28.8639 8.91408 28.8569 8.94611C28.8459 8.99924 28.8358 9.05314 28.8264 9.10236C28.8202 9.13518 28.8139 9.16799 28.8084 9.2008C28.7999 9.25549 28.7928 9.31096 28.7858 9.36643C28.7819 9.39846 28.7772 9.43049 28.7733 9.4633C28.767 9.52346 28.7631 9.58361 28.7584 9.64455C28.7584 9.67268 28.7538 9.7008 28.7522 9.72893C28.7475 9.81799 28.7444 9.90705 28.7444 9.99768C28.7444 10.0758 28.7444 10.1539 28.7506 10.2274V10.2774C28.7548 10.3508 28.7603 10.4242 28.767 10.4977L28.7717 10.5352C28.7788 10.6016 28.7866 10.6672 28.7967 10.732C28.7967 10.7453 28.7967 10.7594 28.8022 10.7727C28.8131 10.8438 28.8264 10.9141 28.8405 10.9844C28.8405 11.0016 28.8475 11.018 28.8506 11.0352C28.8647 11.1024 28.8803 11.1696 28.8975 11.236C28.8975 11.2414 28.8975 11.2461 28.8975 11.2508C28.9155 11.3203 28.935 11.3883 28.9561 11.4563L28.9725 11.5094C28.9936 11.5758 29.0155 11.6406 29.0389 11.7055C29.0436 11.7196 29.0491 11.7336 29.0545 11.7477C29.0756 11.8031 29.0975 11.8586 29.1202 11.9133C29.1264 11.9297 29.1327 11.9453 29.1397 11.961C29.1663 12.0227 29.1936 12.0844 29.2225 12.1453L29.2483 12.1977C29.2756 12.2524 29.303 12.307 29.3319 12.361C29.7397 13.1189 30.3353 13.7594 31.0616 14.2211C31.2522 14.3429 31.4511 14.4512 31.6569 14.5453L31.6874 14.5594C31.8259 14.6219 31.9673 14.6781 32.1116 14.7281L32.1858 14.7531L32.303 14.7899C32.3381 14.8008 32.3733 14.8102 32.4092 14.8203L32.5592 14.8594L32.6944 14.8906L32.7842 14.9086L32.9272 14.9344L33.0006 14.9461C33.0709 14.9563 33.142 14.9656 33.2131 14.9735L33.2733 14.9789C33.3303 14.9836 33.3881 14.9883 33.4459 14.9914L33.5131 14.9953C33.5913 14.9953 33.6647 15.0016 33.7413 15.0016C33.8319 15.0016 33.9209 15.0016 34.01 14.9938L34.0944 14.9875C34.1553 14.9828 34.2155 14.9789 34.2756 14.9727L34.3733 14.9602C34.428 14.9531 34.4834 14.9461 34.5381 14.9375L34.6366 14.9195C34.6897 14.9102 34.7436 14.9 34.7928 14.8891L34.8889 14.8664C34.942 14.8539 34.9952 14.8414 35.0452 14.8266C35.0756 14.8188 35.1053 14.8102 35.1358 14.8008C35.1897 14.7852 35.2436 14.7688 35.2967 14.7516L35.3795 14.7235C35.435 14.7039 35.4897 14.6836 35.5444 14.6625L35.617 14.6336C35.6756 14.6102 35.7334 14.5852 35.7905 14.5594L35.8491 14.5328C35.9124 14.5031 35.9749 14.4727 36.0366 14.4399L36.0749 14.4211C36.1467 14.382 36.2186 14.343 36.2889 14.3H36.2936C36.7446 14.0349 37.1515 13.7012 37.4999 13.311C38.3065 12.3983 38.7512 11.222 38.7499 10.0039Z" fill="white"/>
<path d="M29.0141 15.8227L20.7672 22.2367C20.5478 22.4073 20.2779 22.4998 20 22.4998C19.7221 22.4998 19.4522 22.4073 19.2328 22.2367L7.98281 13.4867C7.85064 13.3869 7.73961 13.2618 7.6562 13.1187C7.57278 12.9756 7.51864 12.8174 7.49691 12.6532C7.47519 12.489 7.48631 12.3221 7.52964 12.1622C7.57296 12.0024 7.64763 11.8527 7.7493 11.7219C7.85096 11.5912 7.9776 11.4819 8.12186 11.4005C8.26611 11.3191 8.42511 11.2672 8.5896 11.2478C8.75409 11.2284 8.9208 11.2419 9.08004 11.2874C9.23928 11.333 9.38787 11.4098 9.51719 11.5133L20 19.6664L27.3609 13.9414C26.6487 12.7892 26.2623 11.4654 26.2429 10.1109C26.2235 8.75649 26.5718 7.42214 27.2508 6.25H6.875C5.71506 6.25124 4.60298 6.71258 3.78278 7.53278C2.96258 8.35298 2.50124 9.46506 2.5 10.625V29.375C2.50124 30.5349 2.96258 31.647 3.78278 32.4672C4.60298 33.2874 5.71506 33.7488 6.875 33.75H33.125C34.2849 33.7488 35.397 33.2874 36.2172 32.4672C37.0374 31.647 37.4988 30.5349 37.5 29.375V16.4992C36.1841 17.2614 34.6674 17.6049 33.1515 17.4841C31.6357 17.3632 30.1925 16.7837 29.0141 15.8227Z" fill="white"/>
</svg>
